<?xml version="1.0" encoding="UTF-8" standalone="no"?>
<!-- Generator: Adobe Illustrator 19.0.0, SVG Export Plug-In . SVG Version: 6.00 Build 0)  -->

<svg
   xmlns:dc="http://purl.org/dc/elements/1.1/"
   xmlns:cc="http://creativecommons.org/ns#"
   xmlns:rdf="http://www.w3.org/1999/02/22-rdf-syntax-ns#"
   xmlns:svg="http://www.w3.org/2000/svg"
   xmlns="http://www.w3.org/2000/svg"
   xmlns:sodipodi="http://sodipodi.sourceforge.net/DTD/sodipodi-0.dtd"
   xmlns:inkscape="http://www.inkscape.org/namespaces/inkscape"
   version="1.1"
   id="Layer_1"
   x="0px"
   y="0px"
   viewBox="0 0 504.322 504.322"
   style="enable-background:new 0 0 504.322 504.322;"
   xml:space="preserve"
   sodipodi:docname="Logo.svg"
   inkscape:export-filename="D:\研发\Amon.me\Amon.me\Logo\Logo80.png"
   inkscape:export-xdpi="15.23"
   inkscape:export-ydpi="15.23"
   inkscape:version="0.92.3 (2405546, 2018-03-11)"><metadata
   id="metadata3801"><rdf:RDF><cc:Work
       rdf:about=""><dc:format>image/svg+xml</dc:format><dc:type
         rdf:resource="http://purl.org/dc/dcmitype/StillImage" /></cc:Work></rdf:RDF></metadata><defs
   id="defs3799" /><sodipodi:namedview
   pagecolor="#ffffff"
   bordercolor="#666666"
   borderopacity="1"
   objecttolerance="10"
   gridtolerance="10"
   guidetolerance="10"
   inkscape:pageopacity="0"
   inkscape:pageshadow="2"
   inkscape:window-width="1366"
   inkscape:window-height="705"
   id="namedview3797"
   showgrid="false"
   inkscape:zoom="1.0390187"
   inkscape:cx="107.31279"
   inkscape:cy="252.161"
   inkscape:window-x="-8"
   inkscape:window-y="-8"
   inkscape:window-maximized="1"
   inkscape:current-layer="Layer_1" />
<path
   style="fill:#BF392B;"
   d="M31.607,157.638l63.015-78.769c24.812-31.508,24.025-31.508,47.262-31.508h220.554  c23.237,0,22.449,0,47.262,31.508l63.015,78.769c42.535,47.262,41.748,47.262,0,94.523L299.422,425.453  c-15.36,15.754-23.237,31.508-47.262,31.508s-31.902-15.754-47.262-31.508L31.607,252.161  C-10.141,204.899-10.929,204.899,31.607,157.638z"
   id="path3758" />
<path
   style="fill:#CC6155;"
   d="M378.191,236.407H126.13l108.308,216.615c5.12,2.363,10.634,3.938,17.723,3.938  s12.603-1.182,17.329-3.545L378.191,236.407z M503.828,204.899v-4.332c-2.363-10.634-12.603-22.055-31.114-42.929l-63.015-78.769  c-24.812-31.508-24.025-31.508-47.262-31.508h-110.67l126.031,189.046C379.373,234.831,503.828,204.899,503.828,204.899z   M94.622,78.868l-63.015,78.769c-21.268,23.631-31.508,35.446-31.508,47.262c1.182,0.394,124.455,29.932,126.031,31.508  L252.161,47.361H141.884C118.647,47.361,119.435,47.361,94.622,78.868z"
   id="path3760" />
<path
   style="fill:#D98880;"
   d="M126.13,236.407L252.161,47.361l126.031,189.046L126.13,236.407L126.13,236.407z"
   id="path3762" />
<path
   style="fill:#D4796E;"
   d="M392.764,57.995c-9.452-10.634-14.178-10.634-30.326-10.634H252.161l126.031,189.046  C378.191,236.407,392.764,57.995,392.764,57.995z M111.558,58.388l14.572,178.018L252.161,47.361H141.884  C125.736,47.361,121.404,47.361,111.558,58.388z"
   id="path3764" />
<g
   id="g3766">
</g>
<g
   id="g3768">
</g>
<g
   id="g3770">
</g>
<g
   id="g3772">
</g>
<g
   id="g3774">
</g>
<g
   id="g3776">
</g>
<g
   id="g3778">
</g>
<g
   id="g3780">
</g>
<g
   id="g3782">
</g>
<g
   id="g3784">
</g>
<g
   id="g3786">
</g>
<g
   id="g3788">
</g>
<g
   id="g3790">
</g>
<g
   id="g3792">
</g>
<g
   id="g3794">
</g>
</svg>